<svg xmlns="http://www.w3.org/2000/svg" style="display: none;">
  <!-- Logo -->
  <symbol id="logo" viewBox="0 0 170 38" fill="none">
    <path d="M166.488 29.3223V7.91027H170V29.3223H166.488Z" fill="currentColor" />
    <path
      d="M145.186 21.4969V7.91027H148.698V21.5585C148.698 24.8858 150.578 26.4571 153.535 26.4571C156.524 26.4571 158.403 24.8858 158.403 21.5585V7.91027H161.915V21.4969C161.915 26.95 157.972 29.5379 153.504 29.5379C149.006 29.5379 145.186 26.95 145.186 21.4969Z"
      fill="currentColor" />
    <path
      d="M136.905 20.3879V29.3224H133.393V12.3469H136.905V14.8116C137.891 13.1171 139.585 12.0696 141.988 12.0696V15.705H141.095C138.507 15.705 136.905 16.7833 136.905 20.3879Z"
      fill="currentColor" />
    <path
      d="M121.525 15.0272C119.153 15.0272 117.243 16.6293 116.873 19.3096H126.27C126.208 16.6909 124.144 15.0272 121.525 15.0272ZM129.474 24.2698C128.519 27.2274 125.839 29.5997 121.679 29.5997C116.812 29.5997 113.207 26.1491 113.207 20.8192C113.207 15.4893 116.658 12.0696 121.679 12.0696C126.516 12.0696 129.936 15.4277 129.936 20.4187C129.936 21.0041 129.905 21.5586 129.813 22.144H116.842C117.089 24.9476 119.091 26.6421 121.679 26.6421C123.836 26.6421 125.038 25.5946 125.685 24.2698H129.474Z"
      fill="currentColor" />
    <path
      d="M103.469 24.6086V15.212H101.467V12.3468H103.469V8.126H107.012V12.3468H111.141V15.212H107.012V24.6086C107.012 25.8718 107.505 26.3955 108.984 26.3955H111.141V29.3223H108.368C105.349 29.3223 103.469 28.0592 103.469 24.6086Z"
      fill="currentColor" />
    <path
      d="M99.1198 24.5779C99.1198 27.4431 96.6243 29.5997 92.6192 29.5997C88.5524 29.5997 85.6872 27.1966 85.5332 24.1158H89.1686C89.2919 25.5021 90.6166 26.6421 92.5576 26.6421C94.5909 26.6421 95.6692 25.7794 95.6692 24.6087C95.6692 21.2814 85.8105 23.1915 85.8105 16.9682C85.8105 14.257 88.3368 12.0696 92.3419 12.0696C96.193 12.0696 98.7193 14.1338 98.9041 17.5227H95.392C95.2687 16.0439 94.1288 15.0272 92.2187 15.0272C90.3393 15.0272 89.3535 15.7974 89.3535 16.9374C89.3535 20.3571 98.935 18.447 99.1198 24.5779Z"
      fill="currentColor" />
    <path
      d="M64.4067 20.7576C64.4067 15.5202 67.9497 12.0696 72.417 12.0696C75.2822 12.0696 77.2539 13.4252 78.3014 14.8116V12.3469H81.8444V29.3224H78.3014V26.7961C77.2231 28.2441 75.1898 29.5997 72.3554 29.5997C67.9497 29.5997 64.4067 25.9951 64.4067 20.7576ZM78.3014 20.8192C78.3014 17.1838 75.8059 15.1196 73.1564 15.1196C70.5377 15.1196 68.0113 17.0914 68.0113 20.7576C68.0113 24.4238 70.5377 26.5496 73.1564 26.5496C75.8059 26.5496 78.3014 24.4855 78.3014 20.8192Z"
      fill="currentColor" />
    <path d="M49.7222 29.3223V7.91027H62.3229V10.7755H53.2343V17.0912H60.3203V19.9564H53.2343V29.3223H49.7222Z"
      fill="currentColor" />
    <path
      d="M27.0361 0C32.6998 0 37.2909 4.59124 37.291 10.2549V27.0361C37.291 32.6999 32.6999 37.291 27.0361 37.291H10.2549C4.59124 37.2909 0 32.6998 0 27.0361V10.2549C0.000150686 4.59133 4.59133 0.000150682 10.2549 0H27.0361ZM19.6719 8.41504C19.5788 8.38273 19.4773 8.38207 19.3838 8.41309C19.2902 8.44418 19.2101 8.5057 19.1562 8.58691L12.1846 20.5674C12.1438 20.6324 12.1217 20.7078 12.1201 20.7842C12.1186 20.8604 12.1379 20.9354 12.1758 21.002C12.2138 21.0686 12.2688 21.1245 12.3359 21.1631C12.403 21.2017 12.4798 21.2217 12.5576 21.2217H18.2041L17.4424 28.4365C17.435 28.5324 17.4605 28.6279 17.5146 28.708C17.569 28.7882 17.6499 28.8485 17.7432 28.8789C17.8362 28.9091 17.9369 28.9083 18.0293 28.876C18.1218 28.8436 18.2003 28.7815 18.2529 28.7002L25.1094 16.7207C25.1491 16.6556 25.171 16.5808 25.1719 16.5049C25.1727 16.4291 25.1534 16.3541 25.1152 16.2881C25.0771 16.222 25.021 16.1671 24.9541 16.1289C24.8874 16.0908 24.8116 16.0704 24.7344 16.0703H19.002L19.9629 8.86719C19.9731 8.77086 19.9501 8.67372 19.8975 8.5918C19.8447 8.50981 19.765 8.44743 19.6719 8.41504Z"
      fill="currentColor" />
  </symbol>

  <!-- Web Design Icon (Monitor) -->
  <symbol id="web-design" viewBox="0 0 24 24" fill="none">
    <path
      d="M10 18H6C4.34315 18 3 16.6569 3 15V6C3 4.34315 4.34315 3 6 3H18C19.6569 3 21 4.34315 21 6V15C21 16.6569 19.6569 18 18 18H14M10 18V21M10 18H14M14 18V21M10 21H14M10 21H9M14 21H15"
      stroke="currentColor" stroke-width="1.5" stroke-linecap="round" stroke-linejoin="round" />
  </symbol>

  <!-- UI/UX Design Icon (Star) -->
  <symbol id="ui-ux" viewBox="0 0 25 24" fill="none">
    <path
      d="M10.7442 4.86962C11.5022 3.47974 13.4979 3.47974 14.2559 4.86962L15.4723 7.09999C15.7599 7.62744 16.2694 7.99764 16.86 8.10823L19.3571 8.57585C20.9132 8.86725 21.5299 10.7653 20.4422 11.9157L18.6969 13.7617C18.2842 14.1983 18.0895 14.7973 18.1668 15.3931L18.4938 17.9125C18.6975 19.4824 17.0829 20.6555 15.6527 19.9766L13.3577 18.8871C12.8149 18.6295 12.1851 18.6295 11.6424 18.8871L9.34732 19.9766C7.91713 20.6555 6.30257 19.4824 6.50629 17.9125L6.8332 15.3931C6.91051 14.7973 6.71588 14.1983 6.30313 13.7617L4.55781 11.9157C3.47019 10.7653 4.08689 8.86725 5.64299 8.57585L8.14007 8.10823C8.7306 7.99764 9.24014 7.62744 9.52779 7.09999L10.7442 4.86962Z"
      stroke="currentColor" stroke-width="1.5" stroke-linejoin="round" />
  </symbol>

  <!-- Responsive Design Icon (Monitor) -->
  <symbol id="responsive" viewBox="0 0 24 24" fill="none">
    <path
      d="M10 18H6C4.34315 18 3 16.6569 3 15V6C3 4.34315 4.34315 3 6 3H18C19.6569 3 21 4.34315 21 6V15C21 16.6569 19.6569 18 18 18H14M10 18V21M10 18H14M14 18V21M10 21H14M10 21H9M14 21H15"
      stroke="currentColor" stroke-width="1.5" stroke-linecap="round" stroke-linejoin="round" />
  </symbol>

  <!-- E-commerce Icon -->
  <symbol id="ecommerce" viewBox="0 0 25 24" fill="none">
    <path
      d="M9.50985 11.75C9.92406 11.75 10.2598 11.4142 10.2598 11C10.2598 10.5858 9.92406 10.25 9.50985 10.25V11.75ZM9.49985 10.25C9.08563 10.25 8.74985 10.5858 8.74985 11C8.74985 11.4142 9.08563 11.75 9.49985 11.75V10.25ZM15.5098 11.75C15.9241 11.75 16.2598 11.4142 16.2598 11C16.2598 10.5858 15.9241 10.25 15.5098 10.25V11.75ZM15.4998 10.25C15.0856 10.25 14.7498 10.5858 14.7498 11C14.7498 11.4142 15.0856 11.75 15.4998 11.75V10.25ZM7.27794 8.75H17.7218V7.25H7.27794V8.75ZM19.9651 10.8274L20.5036 17.8274L21.9992 17.7124L21.4607 10.7124L19.9651 10.8274ZM18.2602 20.25H6.73948V21.75H18.2602V20.25ZM4.49611 17.8274L5.03457 10.8274L3.53899 10.7124L3.00053 17.7124L4.49611 17.8274ZM6.73948 20.25C5.42883 20.25 4.39559 19.1342 4.49611 17.8274L3.00053 17.7124C2.83299 19.8904 4.55507 21.75 6.73948 21.75V20.25ZM20.5036 17.8274C20.6041 19.1342 19.5709 20.25 18.2602 20.25V21.75C20.4446 21.75 22.1667 19.8904 21.9992 17.7124L20.5036 17.8274ZM17.7218 8.75C18.8975 8.75 19.875 9.65519 19.9651 10.8274L21.4607 10.7124C21.3104 8.75865 19.6813 7.25 17.7218 7.25V8.75ZM7.27794 7.25C5.31843 7.25 3.68927 8.75865 3.53899 10.7124L5.03457 10.8274C5.12474 9.65519 6.10224 8.75 7.27794 8.75V7.25ZM14.7498 6V8H16.2498V6H14.7498ZM10.2498 8V6H8.74985V8H10.2498ZM12.4998 3.75C13.7425 3.75 14.7498 4.75736 14.7498 6H16.2498C16.2498 3.92893 14.5709 2.25 12.4998 2.25V3.75ZM12.4998 2.25C10.4288 2.25 8.74985 3.92893 8.74985 6H10.2498C10.2498 4.75736 11.2572 3.75 12.4998 3.75V2.25ZM9.50985 10.25H9.49985V11.75H9.50985V10.25ZM15.5098 10.25H15.4998V11.75H15.5098V10.25Z"
      fill="currentColor" />
  </symbol>

  <!-- Webflow Icon -->
  <symbol id="webflow" viewBox="0 0 21 13" fill="none">
    <path fill-rule="evenodd" clip-rule="evenodd"
      d="M21 0L14.3528 12.8765H8.05945L10.8101 7.61233H10.6832C8.37078 10.5927 4.91824 12.5553 0 13V7.6855C0 7.6855 3.1455 7.50067 4.99585 5.57067H0.0023098V0H5.71431L5.61596 4.58333H5.74275L8.03687 0H12.5781L12.2834 4.555H12.4103L14.7885 0H21Z"
      fill="currentColor" />
  </symbol>

  <symbol id="webflow-big" fill="none">

    <path fill-rule="evenodd" clip-rule="evenodd"
      d="M91 0L62.1955 58.5881H34.9243L46.8438 34.6361H46.294C36.2734 48.1966 21.3124 57.1268 0 59.15V34.969C0 34.969 13.6305 34.128 21.6487 25.3465H0.0100091V0H24.762L24.3358 20.8542H24.8852L34.8265 0H54.5052L53.2282 20.7252H53.778L64.0837 0H91Z"
      fill="currentColor" />

  </symbol>

  <!-- Custom Development Icon -->
  <symbol id="custom-dev" viewBox="0 0 24 24" fill="none">
    <path
      d="M7 9L9.53354 10.5201C10.7287 11.2372 10.8423 12.9262 9.75394 13.7968L7 16M12 16H17M6 21H18C19.6569 21 21 19.6569 21 18V6C21 4.34315 19.6569 3 18 3H6C4.34315 3 3 4.34315 3 6V18C3 19.6569 4.34315 21 6 21Z"
      stroke="currentColor" stroke-width="1.5" stroke-linecap="round" stroke-linejoin="round" />
  </symbol>
</svg>