<svg width="1169" height="1158" viewBox="0 0 1169 1158" fill="none" xmlns="http://www.w3.org/2000/svg">
<g filter="url(#filter0_f_1904_22699)">
<mask id="mask0_1904_22699" style="mask-type:alpha" maskUnits="userSpaceOnUse" x="190" y="255" width="793" height="652">
<path d="M887.563 728.025C888.6 724.434 888.661 720.61 887.739 716.945C886.817 713.28 884.946 709.904 882.315 707.162L687.505 504.098L974.677 293.977C978.434 291.074 981.077 286.969 982.182 282.323C983.287 277.676 982.79 272.759 980.769 268.361C978.748 263.964 975.323 260.344 971.043 258.082C966.764 255.821 961.88 255.051 957.178 255.896L296.954 415.056C293.271 415.816 289.878 417.551 287.126 420.082C284.374 422.612 282.362 425.846 281.298 429.45C280.233 433.055 280.155 436.899 281.072 440.587C281.988 444.275 283.865 447.672 286.51 450.43L478.408 650.459L197.632 868.013C193.983 871.004 191.465 875.153 190.479 879.799C189.493 884.446 190.096 889.323 192.191 893.654C194.286 897.985 197.753 901.522 202.04 903.702C206.328 905.882 211.19 906.58 215.852 905.684L872.115 742.488C875.768 741.688 879.123 739.928 881.836 737.387C884.55 734.846 886.526 731.616 887.563 728.025Z" fill="black"/>
</mask>
<g mask="url(#mask0_1904_22699)">
<g filter="url(#filter1_f_1904_22699)">
<path d="M433.733 433.727L578.31 488.188C459.775 802.862 510.268 1114.17 690.878 1182.2L595.991 1434.09C335.679 1336.04 262.889 887.266 433.733 433.727Z" fill="url(#paint0_linear_1904_22699)"/>
<path d="M509.098 462.116L630.617 507.892C531.01 772.316 573.451 1033.97 725.219 1091.14L645.466 1302.86C426.673 1220.45 365.528 843.252 509.098 462.116Z" fill="url(#paint1_linear_1904_22699)"/>
<path d="M376.781 585.032L521.358 639.492C639.893 324.818 883.225 124.196 1063.83 192.23L1158.72 -59.6639C898.408 -157.721 547.625 131.493 376.781 585.032Z" fill="url(#paint2_linear_1904_22699)"/>
<path d="M214.805 613.014L359.382 667.475C477.917 352.801 721.248 152.178 901.858 220.212L996.745 -31.6816C736.432 -129.739 385.649 159.475 214.805 613.014Z" fill="url(#paint3_linear_1904_22699)"/>
</g>
<g filter="url(#filter2_f_1904_22699)">
<path d="M554.617 529.567L614.997 552.312C565.493 683.73 586.581 813.741 662.009 842.154L622.382 947.353C513.667 906.401 483.267 718.98 554.617 529.567Z" fill="url(#paint4_linear_1904_22699)"/>
<path d="M954.879 646.052L946.39 748.052C724.439 729.578 535.226 818.196 524.623 945.587L346.911 930.795C362.196 747.146 634.965 619.425 954.879 646.052Z" fill="url(#paint5_linear_1904_22699)"/>
<path d="M983.878 535.524L975.388 637.523C753.437 619.05 564.225 707.668 553.622 835.058L375.909 820.267C391.195 636.618 663.963 508.896 983.878 535.524Z" fill="url(#paint6_linear_1904_22699)"/>
<path d="M677.197 701.456L668.707 803.456C446.756 784.982 257.544 873.6 246.941 1000.99L69.2281 986.199C84.5137 802.55 357.282 674.829 677.197 701.456Z" fill="url(#paint7_linear_1904_22699)"/>
<path d="M530.832 592.757L591.212 615.502C640.717 484.083 742.34 400.297 817.768 428.71L857.396 323.511C748.681 282.559 602.183 403.344 530.832 592.757Z" fill="url(#paint8_linear_1904_22699)"/>
<path d="M672.232 528.252L732.612 550.996C782.116 419.578 883.74 335.792 959.168 364.205L998.796 259.006C890.081 218.054 743.583 338.839 672.232 528.252Z" fill="url(#paint9_linear_1904_22699)"/>
</g>
</g>
</g>
<defs>
<filter id="filter0_f_1904_22699" x="90.0171" y="155.562" width="992.74" height="850.502" filterUnits="userSpaceOnUse" color-interpolation-filters="sRGB">
<feFlood flood-opacity="0" result="BackgroundImageFix"/>
<feBlend mode="normal" in="SourceGraphic" in2="BackgroundImageFix" result="shape"/>
<feGaussianBlur stdDeviation="50" result="effect1_foregroundBlur_1904_22699"/>
</filter>
<filter id="filter1_f_1904_22699" x="57.7665" y="-235.803" width="1257.99" height="1826.94" filterUnits="userSpaceOnUse" color-interpolation-filters="sRGB">
<feFlood flood-opacity="0" result="BackgroundImageFix"/>
<feBlend mode="normal" in="SourceGraphic" in2="BackgroundImageFix" result="shape"/>
<feGaussianBlur stdDeviation="78.5193" result="effect1_foregroundBlur_1904_22699"/>
</filter>
<filter id="filter2_f_1904_22699" x="-9.29131" y="172.509" width="1086.61" height="907.001" filterUnits="userSpaceOnUse" color-interpolation-filters="sRGB">
<feFlood flood-opacity="0" result="BackgroundImageFix"/>
<feBlend mode="normal" in="SourceGraphic" in2="BackgroundImageFix" result="shape"/>
<feGaussianBlur stdDeviation="39.2597" result="effect1_foregroundBlur_1904_22699"/>
</filter>
<linearGradient id="paint0_linear_1904_22699" x1="669.801" y1="522.642" x2="359.952" y2="1345.19" gradientUnits="userSpaceOnUse">
<stop stop-color="#9403FD"/>
<stop offset="1" stop-color="#00ADFE"/>
</linearGradient>
<linearGradient id="paint1_linear_1904_22699" x1="707.475" y1="536.833" x2="447.08" y2="1228.1" gradientUnits="userSpaceOnUse">
<stop stop-color="#9403FD"/>
<stop offset="1" stop-color="#00ADFE"/>
</linearGradient>
<linearGradient id="paint2_linear_1904_22699" x1="612.845" y1="673.967" x2="922.693" y2="-148.583" gradientUnits="userSpaceOnUse">
<stop stop-color="#FF12DC"/>
<stop offset="1" stop-color="#FFB912"/>
</linearGradient>
<linearGradient id="paint3_linear_1904_22699" x1="450.869" y1="701.95" x2="760.717" y2="-120.601" gradientUnits="userSpaceOnUse">
<stop stop-color="#FF12DC"/>
<stop offset="1" stop-color="#FFB912"/>
</linearGradient>
<linearGradient id="paint4_linear_1904_22699" x1="653.207" y1="566.701" x2="523.804" y2="910.226" gradientUnits="userSpaceOnUse">
<stop stop-color="#9403FD"/>
<stop offset="1" stop-color="#00ADFE"/>
</linearGradient>
<linearGradient id="paint5_linear_1904_22699" x1="941.028" y1="812.563" x2="360.795" y2="764.268" gradientUnits="userSpaceOnUse">
<stop stop-color="#9403FD"/>
<stop offset="1" stop-color="#00ADFE"/>
</linearGradient>
<linearGradient id="paint6_linear_1904_22699" x1="970.026" y1="702.034" x2="389.794" y2="653.74" gradientUnits="userSpaceOnUse">
<stop stop-color="#9403FD"/>
<stop offset="1" stop-color="#00ADFE"/>
</linearGradient>
<linearGradient id="paint7_linear_1904_22699" x1="663.345" y1="867.966" x2="83.1126" y2="819.672" gradientUnits="userSpaceOnUse">
<stop stop-color="#9403FD"/>
<stop offset="1" stop-color="#00ADFE"/>
</linearGradient>
<linearGradient id="paint8_linear_1904_22699" x1="629.42" y1="629.899" x2="758.823" y2="286.375" gradientUnits="userSpaceOnUse">
<stop stop-color="#FF12DC"/>
<stop offset="1" stop-color="#FFB912"/>
</linearGradient>
<linearGradient id="paint9_linear_1904_22699" x1="770.82" y1="565.394" x2="900.223" y2="221.87" gradientUnits="userSpaceOnUse">
<stop stop-color="#FF12DC"/>
<stop offset="1" stop-color="#FFB912"/>
</linearGradient>
</defs>
</svg>
